<svg width="48" height="48" viewBox="0 0 48 48" fill="none" xmlns="http://www.w3.org/2000/svg">
<path d="M4.58496 4.2122L4.84617 25.37C4.84617 23.0121 6.17441 27.0777 6.41341 27.1985L17.8477 34.9584C18.0489 35.0601 18.2866 35.0601 18.4878 34.9584L29.9221 27.4597C30.1611 27.3389 30.9669 25.6378 30.9669 25.37L32.0118 4.2122L18.1678 1.86133L4.58496 4.2122Z" fill="#226CBC"/>
<path d="M9.37361 21.959L5.40979 26.0435L5.84972 26.5066C5.84972 26.7745 6.27033 27.0805 6.50961 27.2012V27.6643L12.4158 21.959H9.37361Z" fill="#FFF5F5"/>
<path d="M13.865 21.959H12.4156L6.5094 27.6643L7.82918 29.2851L13.865 23.5519V21.959Z" fill="#B9192E"/>
<path d="M9.36894 4.32544L6.94934 4.76537L13.8651 11.9053V8.86299L9.36894 4.32544Z" fill="#FFF5F5"/>
<path d="M13.8652 13.3545V11.9051L6.94952 4.76514L5.40978 5.20506L4.40002 5.48254L12.2724 13.3545H13.8652Z" fill="#B9192E"/>
<path d="M22.47 26.5947L26.9661 31.138L28.5059 29.5173L22.47 23.5525V26.5947Z" fill="#FFF5F5"/>
<path d="M22.47 21.959V23.5519L28.5059 29.7481L29.8256 28.1274L23.9194 21.959H22.47Z" fill="#B9192E"/>
<path d="M27.1053 13.3544L31.9354 8.52424V5.48242L24.063 13.3544H27.1053Z" fill="#FFF5F5"/>
<path d="M29.6057 4.76514L22.47 11.9051V13.3545H24.0628L31.9352 5.48254L31.1454 5.20506L29.6057 4.76514Z" fill="#B9192E"/>
<path d="M31.9353 13.3544V21.9592H22.4701V33.9119L20.3189 34.9983L18.4878 35.9236C18.2865 36.0253 18.0489 36.0253 17.8475 35.9236L16.0165 34.9983L13.8653 33.9119V21.9592H4.40002V13.3544H13.8652V3.56861L18.1676 2.56543L22.47 3.56861V13.3544H31.9353Z" fill="#FFF5F5"/>
<path d="M31.9353 15.5056V19.808H20.3188V34.9983L18.4878 35.9236C18.2864 36.0253 18.0488 36.0253 17.8475 35.9236L16.0164 34.9983V19.808H4.40002V15.5056H16.0165V3.22532L17.9477 2.56543L20.3189 3.00536V15.5056H31.9353Z" fill="#B9192E"/>
<path d="M31.8053 21.0553V4.45962C31.8053 4.45962 23.9854 4.42349 18.0549 1.6001C13.1021 4.45962 4.52994 4.45962 4.52994 4.45962L4.52991 21.0553C4.52991 29.0145 18.0549 35.0345 18.0549 35.0345C18.0549 35.0345 31.8053 29.9406 31.8053 21.0553Z" stroke="black" stroke-width="2"/>
<path fill-rule="evenodd" clip-rule="evenodd" d="M11.0059 40.3436L4 34.4688L6.55756 32.7251L13.4082 35.2639L36.9595 21.2819C40.8643 18.9637 48.6045 22.1233 41.1947 26.5223L35.8096 29.7193L31.0363 45.5101L27.6846 47.5V34.4728C27.6846 34.4728 13.6282 42.4399 11.0059 40.3436ZM13.2175 24.2938L22.7088 29.7423L29.5817 25.662L16.5693 22.3039L13.2175 24.2938Z" fill="black"/>
</svg>
